<svg width="32" height="32" viewBox="0 0 32 32" fill="none" xmlns="http://www.w3.org/2000/svg">
  <g clip-path="url(#clip0_2181_64529)">
    <path d="M21.9993 0C20.2933 0.117999 18.2993 1.20999 17.1373 2.63198C16.0773 3.92198 15.2054 5.83797 15.5453 7.69995C17.4093 7.75795 19.3353 6.63996 20.4513 5.19397C21.4953 3.84798 22.2853 1.94399 21.9993 0Z" fill="white" />
    <path d="M28.7411 10.736C27.1031 8.68203 24.8011 7.49004 22.6271 7.49004C19.7571 7.49004 18.5431 8.86403 16.5492 8.86403C14.4932 8.86403 12.9312 7.49404 10.4492 7.49404C8.0112 7.49404 5.41522 8.98403 3.76923 11.532C1.45524 15.12 1.85124 21.866 5.60122 27.6119C6.94321 29.6679 8.7352 31.9799 11.0792 31.9999C13.1652 32.0199 13.7532 30.6619 16.5792 30.6479C19.4051 30.6319 19.9411 32.0179 22.0231 31.9959C24.3691 31.9779 26.2591 29.4159 27.6011 27.3599C28.5631 25.8859 28.9211 25.1439 29.6671 23.4799C24.2411 21.414 23.3711 13.698 28.7411 10.736Z" fill="white" />
  </g>
  <defs>
    <clipPath id="clip0_2181_64529">
      <rect width="32" height="32" fill="white" />
    </clipPath>
  </defs>
</svg>